<svg width="1590" height="301" viewBox="0 0 1590 301" fill="none" xmlns="http://www.w3.org/2000/svg">
<path d="M1587.88 121.812L1548.92 128.844C1547.61 121.062 1544.61 115.203 1539.92 111.266C1535.33 107.328 1529.33 105.359 1521.92 105.359C1512.08 105.359 1504.2 108.781 1498.3 115.625C1492.48 122.375 1489.58 133.719 1489.58 149.656C1489.58 167.375 1492.53 179.891 1498.44 187.203C1504.44 194.516 1512.45 198.172 1522.48 198.172C1529.98 198.172 1536.13 196.062 1540.91 191.844C1545.69 187.531 1549.06 180.172 1551.03 169.766L1589.84 176.375C1585.81 194.188 1578.08 207.641 1566.64 216.734C1555.2 225.828 1539.88 230.375 1520.66 230.375C1498.81 230.375 1481.38 223.484 1468.34 209.703C1455.41 195.922 1448.94 176.844 1448.94 152.469C1448.94 127.812 1455.45 108.641 1468.48 94.9531C1481.52 81.1719 1499.14 74.2812 1521.36 74.2812C1539.55 74.2812 1553.98 78.2188 1564.67 86.0938C1575.45 93.875 1583.19 105.781 1587.88 121.812Z" fill="black"/>
<path d="M1395.35 179.469L1434.72 186.078C1429.66 200.516 1421.65 211.531 1410.68 219.125C1399.8 226.625 1386.16 230.375 1369.75 230.375C1343.79 230.375 1324.57 221.891 1312.1 204.922C1302.25 191.328 1297.33 174.172 1297.33 153.453C1297.33 128.703 1303.8 109.344 1316.74 95.375C1329.68 81.3125 1346.04 74.2812 1365.82 74.2812C1388.04 74.2812 1405.57 81.6406 1418.41 96.3594C1431.25 110.984 1437.4 133.438 1436.83 163.719H1337.83C1338.11 175.438 1341.3 184.578 1347.4 191.141C1353.49 197.609 1361.08 200.844 1370.18 200.844C1376.36 200.844 1381.57 199.156 1385.79 195.781C1390 192.406 1393.19 186.969 1395.35 179.469ZM1397.6 139.531C1397.32 128.094 1394.36 119.422 1388.74 113.516C1383.11 107.516 1376.27 104.516 1368.21 104.516C1359.58 104.516 1352.46 107.656 1346.83 113.938C1341.21 120.219 1338.44 128.75 1338.54 139.531H1397.6Z" fill="black"/>
<path d="M1143.2 77.6562H1180.04V99.5938C1184.82 92.0938 1191.29 86 1199.45 81.3125C1207.6 76.625 1216.65 74.2812 1226.59 74.2812C1243.93 74.2812 1258.65 81.0781 1270.74 94.6719C1282.84 108.266 1288.88 127.203 1288.88 151.484C1288.88 176.422 1282.79 195.828 1270.6 209.703C1258.42 223.484 1243.65 230.375 1226.31 230.375C1218.06 230.375 1210.56 228.734 1203.81 225.453C1197.15 222.172 1190.12 216.547 1182.71 208.578V283.812H1143.2V77.6562ZM1182.29 149.797C1182.29 166.578 1185.62 179 1192.27 187.062C1198.93 195.031 1207.04 199.016 1216.6 199.016C1225.79 199.016 1233.43 195.359 1239.52 188.047C1245.62 180.641 1248.67 168.547 1248.67 151.766C1248.67 136.109 1245.52 124.484 1239.24 116.891C1232.96 109.297 1225.18 105.5 1215.9 105.5C1206.24 105.5 1198.23 109.25 1191.85 116.75C1185.48 124.156 1182.29 135.172 1182.29 149.797Z" fill="black"/>
<path d="M981.607 184.391L1021.26 178.344C1022.95 186.031 1026.37 191.891 1031.53 195.922C1036.69 199.859 1043.9 201.828 1053.19 201.828C1063.4 201.828 1071.09 199.953 1076.25 196.203C1079.72 193.578 1081.45 190.062 1081.45 185.656C1081.45 182.656 1080.51 180.172 1078.64 178.203C1076.67 176.328 1072.26 174.594 1065.42 173C1033.54 165.969 1013.34 159.547 1004.81 153.734C992.998 145.672 987.092 134.469 987.092 120.125C987.092 107.188 992.201 96.3125 1002.42 87.5C1012.64 78.6875 1028.48 74.2812 1049.95 74.2812C1070.39 74.2812 1085.58 77.6094 1095.51 84.2656C1105.45 90.9219 1112.29 100.766 1116.04 113.797L1078.78 120.688C1077.19 114.875 1074.14 110.422 1069.64 107.328C1065.23 104.234 1058.9 102.688 1050.65 102.688C1040.25 102.688 1032.79 104.141 1028.29 107.047C1025.29 109.109 1023.79 111.781 1023.79 115.062C1023.79 117.875 1025.11 120.266 1027.73 122.234C1031.29 124.859 1043.58 128.562 1064.58 133.344C1085.67 138.125 1100.39 143.984 1108.73 150.922C1116.98 157.953 1121.11 167.75 1121.11 180.312C1121.11 194 1115.39 205.766 1103.95 215.609C1092.51 225.453 1075.59 230.375 1053.19 230.375C1032.84 230.375 1016.72 226.25 1004.81 218C992.998 209.75 985.264 198.547 981.607 184.391Z" fill="black"/>
<path d="M926.893 227V20.8438H966.409V227H926.893Z" fill="black"/>
<path d="M858.257 227V20.8438H897.772V227H858.257Z" fill="black"/>
<path d="M738.996 123.219L703.136 116.75C707.167 102.312 714.105 91.625 723.949 84.6875C733.792 77.75 748.417 74.2812 767.824 74.2812C785.449 74.2812 798.574 76.3906 807.199 80.6094C815.824 84.7344 821.871 90.0312 825.339 96.5C828.902 102.875 830.683 114.641 830.683 131.797L830.261 177.922C830.261 191.047 830.871 200.75 832.089 207.031C833.402 213.219 835.792 219.875 839.261 227H800.167C799.136 224.375 797.871 220.484 796.371 215.328C795.714 212.984 795.246 211.438 794.964 210.688C788.214 217.25 780.996 222.172 773.308 225.453C765.621 228.734 757.417 230.375 748.699 230.375C733.324 230.375 721.183 226.203 712.277 217.859C703.464 209.516 699.058 198.969 699.058 186.219C699.058 177.781 701.074 170.281 705.105 163.719C709.136 157.062 714.761 152 721.98 148.531C729.292 144.969 739.792 141.875 753.48 139.25C771.949 135.781 784.746 132.547 791.871 129.547V125.609C791.871 118.016 789.996 112.625 786.246 109.438C782.496 106.156 775.417 104.516 765.011 104.516C757.98 104.516 752.496 105.922 748.558 108.734C744.621 111.453 741.433 116.281 738.996 123.219ZM791.871 155.281C786.808 156.969 778.792 158.984 767.824 161.328C756.855 163.672 749.683 165.969 746.308 168.219C741.152 171.875 738.574 176.516 738.574 182.141C738.574 187.672 740.636 192.453 744.761 196.484C748.886 200.516 754.136 202.531 760.511 202.531C767.636 202.531 774.433 200.188 780.902 195.5C785.683 191.938 788.824 187.578 790.324 182.422C791.355 179.047 791.871 172.625 791.871 163.156V155.281Z" fill="black"/>
<path d="M690.891 121.812L651.938 128.844C650.625 121.062 647.625 115.203 642.938 111.266C638.344 107.328 632.344 105.359 624.938 105.359C615.094 105.359 607.219 108.781 601.312 115.625C595.5 122.375 592.594 133.719 592.594 149.656C592.594 167.375 595.547 179.891 601.453 187.203C607.453 194.516 615.469 198.172 625.5 198.172C633 198.172 639.141 196.062 643.922 191.844C648.703 187.531 652.078 180.172 654.047 169.766L692.859 176.375C688.828 194.188 681.094 207.641 669.656 216.734C658.219 225.828 642.891 230.375 623.672 230.375C601.828 230.375 584.391 223.484 571.359 209.703C558.422 195.922 551.953 176.844 551.953 152.469C551.953 127.812 558.469 108.641 571.5 94.9531C584.531 81.1719 602.156 74.2812 624.375 74.2812C642.562 74.2812 657 78.2188 667.688 86.0938C678.469 93.875 686.203 105.781 690.891 121.812Z" fill="black"/>
<circle cx="159.606" cy="155.771" r="27.32" fill="#882CEB"/>
<circle cx="241.087" cy="155.771" r="27.32" fill="#B829ED"/>
<circle cx="322.568" cy="155.771" r="27.32" fill="#E728EF"/>
<path d="M104.637 17.7388L9.03982 129.397C3.20613 136.21 0 144.885 0 153.855C0 162.821 3.22379 171.489 9.08313 178.276L101.533 285.364C108.781 293.759 121.674 294.116 129.375 286.135C136.172 279.09 136.448 268.016 130.01 260.641L42.7965 160.742C38.8671 156.241 38.8475 149.535 42.7504 145.011L132.152 41.3863C137.584 35.0897 138.04 25.9056 133.256 19.1027C126.447 9.41851 112.337 8.74606 104.637 17.7388Z" fill="url(#paint0_linear_3204_140)"/>
<path d="M381.851 17.7388L477.448 129.397C483.282 136.21 486.488 144.885 486.488 153.855C486.488 162.821 483.264 171.489 477.405 178.276L384.955 285.364C377.707 293.759 364.814 294.116 357.113 286.135C350.316 279.09 350.04 268.016 356.478 260.641L443.692 160.742C447.621 156.241 447.641 149.535 443.738 145.011L354.336 41.3863C348.904 35.0897 348.449 25.9056 353.232 19.1027C360.041 9.41851 374.151 8.74606 381.851 17.7388Z" fill="url(#paint1_linear_3204_140)"/>
<defs>
<linearGradient id="paint0_linear_3204_140" x1="70.6965" y1="0" x2="70.6965" y2="301" gradientUnits="userSpaceOnUse">
<stop stop-color="#812CEB"/>
<stop offset="1" stop-color="#EC27EF"/>
</linearGradient>
<linearGradient id="paint1_linear_3204_140" x1="415.791" y1="0" x2="415.791" y2="301" gradientUnits="userSpaceOnUse">
<stop stop-color="#2CE5EB"/>
<stop offset="1" stop-color="#274CEF"/>
</linearGradient>
</defs>
</svg>
