<?xml version="1.0" encoding="UTF-8"?>
<svg xmlns="http://www.w3.org/2000/svg" width="248" height="64" viewBox="0 0 248 64" fill="none" role="img" aria-label="callspec">
  <g transform="translate(0 0)">
    <path fill="#000" fill-rule="evenodd" d="M30.9 4.635A2.2 2.2 0 0 1 33.1 4.635L55.149 17.365A2.2 2.2 0 0 1 56.249 19.27V44.73A2.2 2.2 0 0 1 55.149 46.635L33.1 59.365A2.2 2.2 0 0 1 30.9 59.365L8.851 46.635A2.2 2.2 0 0 1 7.751 44.73V19.27A2.2 2.2 0 0 1 8.851 17.365ZM22 24H42A3 3 0 0 1 42 30H22A3 3 0 0 1 22 24ZM22 34H42A3 3 0 0 1 42 40H22A3 3 0 0 1 22 34Z"/>
  </g>
  <path fill="#000" d="M83.388 48.686C88.149 48.686 91.616 46.606 93.234 41.984L87.918 39.673C87.225 41.614 86.116 43.278 83.388 43.278C80.615 43.278 79.182 41.337 79.182 38.286L79.182 33.756C79.182 30.706 80.615 28.718 83.388 28.718C85.792 28.718 87.132 30.197 87.548 32.046L93.095 29.643C91.662 25.668 88.288 23.310 83.388 23.310C76.085 23.310 72.064 28.210 72.064 35.975C72.064 43.740 76.085 48.686 83.388 48.686ZM118.286 48.132L118.286 42.816L116.021 42.816L116.021 32.185C116.021 26.453 112.508 23.310 105.668 23.310C100.583 23.310 97.810 25.067 95.868 27.932L99.936 31.538C100.999 30.059 102.432 28.672 105.159 28.672C108.025 28.672 109.180 30.151 109.180 32.508L109.180 34.034L105.344 34.034C98.919 34.034 94.944 36.484 94.944 41.614C94.944 45.820 97.625 48.686 102.478 48.686C106.176 48.686 108.857 47.022 109.596 43.879L109.874 43.879C110.290 46.468 112.046 48.132 114.496 48.132ZM105.020 43.925C102.987 43.925 101.831 43.093 101.831 41.337L101.831 40.644C101.831 38.887 103.218 37.916 105.852 37.916L109.180 37.916L109.180 40.782C109.180 43.001 107.285 43.925 105.020 43.925ZM131.829 48.132L131.829 42.816L128.779 42.816L128.779 13.927L121.938 13.927L121.938 41.476C121.938 45.774 124.064 48.132 128.732 48.132ZM144.910 48.132L144.910 42.816L141.860 42.816L141.860 13.927L135.019 13.927L135.019 41.476C135.019 45.774 137.145 48.132 141.813 48.132ZM156.327 48.686C162.567 48.686 166.727 45.266 166.727 40.597C166.727 36.391 164 33.988 158.731 33.294L156.004 32.924C154.016 32.647 153.461 31.954 153.461 30.660C153.461 29.458 154.386 28.626 156.697 28.626C158.731 28.626 160.764 29.596 162.290 31.122L166.219 27.100C163.769 24.697 161.412 23.310 156.327 23.310C150.549 23.310 146.898 26.546 146.898 31.214C146.898 35.605 149.579 38.009 155.079 38.702L157.714 39.026C159.424 39.257 160.164 39.858 160.164 41.060C160.164 42.492 159.239 43.371 156.558 43.371C153.924 43.371 151.844 42.169 150.133 40.274L146.112 44.341C148.608 47.115 151.659 48.686 156.327 48.686ZM170.471 57.376L177.312 57.376L177.312 44.064L177.543 44.064C178.236 46.699 180.917 48.686 184.060 48.686C190.208 48.686 193.397 44.203 193.397 35.975C193.397 27.748 190.208 23.310 184.060 23.310C180.917 23.310 178.236 25.252 177.543 27.932L177.312 27.932L177.312 23.865L170.471 23.865ZM181.796 43.140C179.207 43.140 177.312 41.799 177.312 39.580L177.312 32.416C177.312 30.197 179.207 28.857 181.796 28.857C184.384 28.857 186.279 30.844 186.279 33.895L186.279 38.101C186.279 41.152 184.384 43.140 181.796 43.140ZM207.772 48.686C212.210 48.686 215.769 47.161 217.941 44.665L214.521 40.412C212.996 41.984 211.424 43.324 208.558 43.324C204.907 43.324 203.196 41.291 203.196 38.101L203.196 37.732L218.773 37.732L218.773 35.698C218.773 29.134 215.538 23.310 207.495 23.310C200.192 23.310 196.124 28.302 196.124 35.975C196.124 43.740 200.331 48.686 207.772 48.686ZM207.634 28.348C210.361 28.348 211.701 30.336 211.701 33.294L211.701 33.710L203.196 33.710L203.196 33.340C203.196 30.336 204.907 28.348 207.634 28.348ZM232.501 48.686C237.262 48.686 240.729 46.606 242.347 41.984L237.031 39.673C236.338 41.614 235.228 43.278 232.501 43.278C229.728 43.278 228.295 41.337 228.295 38.286L228.295 33.756C228.295 30.706 229.728 28.718 232.501 28.718C234.905 28.718 236.245 30.197 236.661 32.046L242.208 29.643C240.775 25.668 237.401 23.310 232.501 23.310C225.198 23.310 221.177 28.210 221.177 35.975C221.177 43.740 225.198 48.686 232.501 48.686Z"/>
</svg>
