<svg xmlns="http://www.w3.org/2000/svg" width="106" height="99" viewBox="0 0 106 99" role="img" aria-label="callspec">
  <path d="M87.425 13.0013C88.6117 11.7121 90.6203 11.6272 91.912 12.8116C93.2036 13.996 93.2887 16.0009 92.102 17.29L62.5786 50.8356L77.6705 83.986C78.3961 85.5799 77.6895 87.4594 76.0927 88.1836C74.4958 88.9078 72.6133 88.2025 71.8876 86.6088L56.4867 52.7807L16.2733 38.7241C14.618 38.1454 13.7463 36.3369 14.3261 34.6847C14.906 33.0326 16.7179 32.1627 18.3733 32.7413L57.8931 46.5559L87.425 13.0013Z" fill="white"/>
  <path d="M77.9547 49.8529C77.9547 59.2428 70.3281 66.8547 60.9201 66.8547C51.5122 66.8547 43.8856 59.2428 43.8856 49.8529C43.8856 40.463 51.5122 32.851 60.9201 32.851C70.3281 32.851 77.9547 40.463 77.9547 49.8529Z" fill="white"/>
  <path d="M105.094 14.9847C105.094 23.2605 98.3727 29.9694 90.081 29.9694C81.7892 29.9694 75.0675 23.2605 75.0675 14.9847C75.0675 6.70887 81.7892 0 90.081 0C98.3727 0 105.094 6.70887 105.094 14.9847Z" fill="#FF7272"/>
  <path d="M87.4086 86.6088C87.4086 93.4523 81.8502 99 74.9936 99C68.137 99 62.5786 93.4523 62.5786 86.6088C62.5786 79.7654 68.137 74.2176 74.9936 74.2176C81.8502 74.2176 87.4086 79.7654 87.4086 86.6088Z" fill="#52EBFF"/>
  <path d="M29.4495 35.4445C29.4495 43.5612 22.857 50.1411 14.7248 50.1411C6.59251 50.1411 0 43.5612 0 35.4445C0 27.3279 6.59251 20.748 14.7248 20.748C22.857 20.748 29.4495 27.3279 29.4495 35.4445Z" fill="#CBFF72"/>
</svg>
